<svg width="20" height="20" viewBox="0 0 20 20" fill="none" xmlns="http://www.w3.org/2000/svg">
<g clip-path="url(#clip0_9099_189128)">
<path fill-rule="evenodd" clip-rule="evenodd" d="M4.37724 5.68711C5.15201 5.68711 5.78005 5.05887 5.78005 4.28386C5.78005 3.50884 5.15201 2.88045 4.37724 2.88045C3.60246 2.88045 2.97442 3.50884 2.97442 4.28386C2.97442 5.05887 3.60246 5.68711 4.37724 5.68711ZM18.4136 4.54426V18.4132H4.54269V20H20V4.54426H18.4136ZM17.0932 1.63652H15.5068V15.5054H1.63585V17.0923H17.0932V1.63652ZM12.6909 6.4142L9.16962 9.54346L6.81515 6.50132L1.58636 10.7052V1.58685H12.6909V6.4142ZM12.6909 12.6948H1.64378L6.54975 8.75052L8.95435 11.8574L12.6909 8.53677V12.6948ZM0 14.2816H14.2772V0H0V14.2816Z" fill="#221F1F"/>
</g>
<defs>
<clipPath id="clip0_9099_189128">
<rect width="20" height="20" fill="white"/>
</clipPath>
</defs>
</svg>
